<?xml version="1.0" standalone="no"?>
<!DOCTYPE svg PUBLIC "-//W3C//DTD SVG 20010904//EN"
 "http://www.w3.org/TR/2001/REC-SVG-20010904/DTD/svg10.dtd">
<svg version="1.0" xmlns="http://www.w3.org/2000/svg"
 width="800.000000pt" height="800.000000pt" viewBox="0 0 800.000000 800.000000"
 preserveAspectRatio="xMidYMid meet">
<metadata>
Created by potrace 1.16, written by Peter Selinger 2001-2019
</metadata>
<g transform="translate(0.000000,800.000000) scale(0.100000,-0.100000)"
fill="#000000" stroke="none">
<path d="M1562 6816 c-87 -29 -162 -100 -205 -194 -19 -42 -21 -70 -25 -249
l-4 -203 -247 0 c-255 0 -339 -8 -401 -40 -56 -28 -119 -96 -148 -158 l-27
-57 0 -2255 0 -2255 27 -57 c34 -73 97 -136 173 -172 49 -24 77 -30 150 -34
l91 -4 154 60 c233 90 378 131 615 171 752 128 1443 -30 2182 -498 72 -46 134
-46 206 0 404 256 788 416 1182 493 303 60 665 61 1000 5 235 -40 405 -87 615
-171 69 -28 149 -53 178 -57 158 -22 324 66 390 207 l27 57 0 2255 0 2255 -26
55 c-29 62 -95 132 -149 160 -62 32 -146 40 -401 40 l-247 0 -4 203 c-4 193
-5 205 -30 259 -32 69 -103 142 -166 171 -42 20 -63 22 -207 21 -543 -4 -1138
-128 -1530 -319 -239 -117 -429 -250 -622 -439 l-113 -109 -112 109 c-450 437
-986 656 -1804 738 -236 24 -470 29 -522 12z m433 -337 c415 -31 836 -136
1134 -281 233 -114 417 -251 605 -449 l96 -102 0 -2015 0 -2015 -77 74 c-321
307 -714 522 -1183 649 -197 54 -494 101 -715 115 -55 3 -119 8 -142 11 l-43
5 0 2015 0 2014 93 -5 c50 -3 155 -10 232 -16z m4335 -1993 l0 -2015 -42 -5
c-24 -3 -88 -8 -143 -11 -221 -14 -518 -61 -715 -115 -468 -127 -862 -343
-1182 -649 l-78 -74 0 2015 0 2015 96 102 c188 198 372 335 605 449 343 167
824 273 1339 295 36 2 77 4 93 5 l27 2 0 -2014z m-4998 -373 l3 -1718 29 -63
c31 -67 91 -129 158 -163 43 -22 131 -36 288 -44 520 -28 1038 -184 1389 -418
134 -90 314 -237 289 -237 -3 0 -35 13 -70 28 -34 16 -126 50 -203 75 -385
127 -624 167 -995 167 -455 -1 -849 -73 -1239 -229 -57 -23 -113 -41 -125 -39
l-21 3 -3 2178 -2 2177 250 0 250 0 2 -1717z m5836 -460 l-3 -2178 -21 -3
c-12 -2 -68 16 -125 39 -390 156 -784 228 -1239 229 -375 0 -634 -44 -1015
-173 -71 -25 -156 -56 -189 -71 -32 -14 -61 -26 -64 -26 -25 0 156 148 289
237 351 234 869 390 1389 418 229 12 283 27 368 100 51 45 86 110 101 190 8
41 11 569 11 1737 l0 1678 250 0 250 0 -2 -2177z"/>
</g>
</svg>
