<?xml version="1.0" standalone="no"?>
<!DOCTYPE svg PUBLIC "-//W3C//DTD SVG 20010904//EN"
 "http://www.w3.org/TR/2001/REC-SVG-20010904/DTD/svg10.dtd">
<svg version="1.0" xmlns="http://www.w3.org/2000/svg"
 width="800.000000pt" height="800.000000pt" viewBox="0 0 800.000000 800.000000"
 preserveAspectRatio="xMidYMid meet">
<metadata>
Created by potrace 1.16, written by Peter Selinger 2001-2019
</metadata>
<g transform="translate(0.000000,800.000000) scale(0.100000,-0.100000)"
fill="#000000" stroke="none">
<path d="M1750 7476 c-63 -18 -111 -44 -218 -120 -514 -365 -829 -840 -997
-1506 -40 -158 -55 -259 -62 -427 -34 -812 453 -1805 1396 -2843 166 -182 540
-556 716 -715 510 -460 949 -776 1421 -1021 293 -153 477 -224 766 -298 252
-64 386 -81 628 -80 173 0 269 12 445 56 400 98 705 237 995 451 241 178 594
591 643 752 6 22 12 87 11 145 0 97 -2 110 -32 174 -52 112 -122 180 -381 374
-130 97 -413 308 -629 470 -216 162 -423 309 -459 328 -138 69 -294 69 -438 1
-71 -34 -97 -57 -395 -353 l-318 -316 -130 66 c-246 125 -582 359 -836 581
-552 481 -1012 1038 -1257 1519 l-61 119 134 136 c530 540 512 520 546 601 56
137 53 275 -9 407 -25 53 -869 1199 -991 1345 -52 62 -144 123 -225 148 -75
23 -192 25 -263 6z m209 -347 c41 -33 950 -1254 974 -1308 16 -37 17 -49 7
-90 -10 -42 -40 -75 -359 -396 -192 -192 -356 -364 -365 -382 -37 -73 -9 -174
113 -408 299 -572 854 -1219 1491 -1737 373 -303 915 -618 1065 -618 26 0 56
5 68 11 12 6 182 170 377 364 350 348 356 353 408 364 47 10 59 9 95 -7 53
-24 1274 -933 1306 -973 15 -19 26 -47 28 -77 4 -44 1 -52 -58 -137 -319 -459
-750 -746 -1334 -889 -261 -63 -525 -68 -790 -15 -107 21 -371 93 -420 115
-16 7 -43 15 -60 19 -34 8 -32 7 -249 110 -87 41 -167 75 -177 75 -10 0 -25 7
-34 16 -23 23 -78 60 -126 84 -21 11 -39 24 -39 28 0 5 -22 19 -50 32 -27 13
-50 27 -50 31 0 4 -8 10 -17 13 -10 3 -43 26 -73 51 -30 25 -59 45 -64 45 -5
0 -30 17 -55 38 -25 21 -71 55 -101 77 -285 204 -727 593 -1066 936 -773 786
-1256 1496 -1483 2178 -130 392 -151 733 -65 1086 143 585 430 1016 889 1334
85 59 93 62 137 58 30 -2 58 -13 77 -28z"/>
</g>
</svg>
